<svg xmlns="http://www.w3.org/2000/svg" width="41.206" height="40.297" viewBox="0 0 41.206 40.297"><g id="Badge" transform="translate(-47.427 -51.924)"><path id="Path_3128" data-name="Path 3128" d="M169.729,168.564a.768.768,0,0,1-.359-.089l-5.222-2.746-5.222,2.746a.771.771,0,0,1-1.119-.813l1-5.815-4.225-4.118a.771.771,0,0,1,.427-1.315l5.839-.849,2.611-5.29a.8.8,0,0,1,1.384,0l2.611,5.29,5.838.849a.771.771,0,0,1,.427,1.315l-4.225,4.118,1,5.815a.772.772,0,0,1-.76.9Zm-12.953-10.849,3.4,3.311a.773.773,0,0,1,.222.682l-.8,4.674,4.2-2.207a.766.766,0,0,1,.718,0l4.2,2.207-.8-4.674a.772.772,0,0,1,.222-.682l3.4-3.311-4.693-.682a.771.771,0,0,1-.581-.422l-2.1-4.252-2.1,4.252a.771.771,0,0,1-.581.422Z" transform="translate(-96.118 -88.038)" stroke="#faf7f2" stroke-width="0.8"/><path id="Path_3129" data-name="Path 3129" d="M125.164,139.123a13.962,13.962,0,1,1,13.962-13.962A13.978,13.978,0,0,1,125.164,139.123Zm0-26.381a12.419,12.419,0,1,0,12.419,12.419,12.419,12.419,0,0,0-12.419-12.419Z" transform="translate(-57.133 -53.088)" stroke="#faf7f2" stroke-width="0.8"/><path id="Path_3130" data-name="Path 3130" d="M71.876,91.7a2.79,2.79,0,0,1-1.369-.36L68.64,90.29a1.247,1.247,0,0,0-1.22,0L65.552,91.34a2.781,2.781,0,0,1-3.649-.832l-1.229-1.757a1.266,1.266,0,0,0-1.1-.528l-2.141.132a2.774,2.774,0,0,1-2.923-2.333l-.345-2.115a1.237,1.237,0,0,0-.762-.954l-1.983-.8A2.779,2.779,0,0,1,49.8,78.776l.606-2.055a1.252,1.252,0,0,0-.27-1.186l-1.439-1.592a2.78,2.78,0,0,1,0-3.739l1.44-1.593a1.255,1.255,0,0,0,.27-1.187L49.8,65.369A2.78,2.78,0,0,1,51.423,62l1.985-.805a1.252,1.252,0,0,0,.76-.952l.346-2.116a2.773,2.773,0,0,1,2.923-2.333l2.141.133a1.239,1.239,0,0,0,1.1-.529L61.9,53.639a2.778,2.778,0,0,1,3.65-.831l1.867,1.049a1.257,1.257,0,0,0,1.221,0l1.867-1.049a2.781,2.781,0,0,1,3.649.831l1.23,1.757a1.248,1.248,0,0,0,1.1.528l2.142-.132a2.788,2.788,0,0,1,2.923,2.333l.346,2.116a1.253,1.253,0,0,0,.76.953l1.983.8a2.78,2.78,0,0,1,1.626,3.373l-.606,2.054a1.252,1.252,0,0,0,.27,1.186L87.366,70.2a2.781,2.781,0,0,1,0,3.739l-1.439,1.593a1.253,1.253,0,0,0-.271,1.187l.606,2.055a2.779,2.779,0,0,1-1.625,3.372l-1.984.805a1.253,1.253,0,0,0-.761.953l-.345,2.115a2.784,2.784,0,0,1-2.924,2.333l-2.14-.132a1.244,1.244,0,0,0-1.1.529l-1.228,1.754A2.78,2.78,0,0,1,71.876,91.7ZM68.03,88.59a2.792,2.792,0,0,1,1.366.355l1.867,1.049a1.24,1.24,0,0,0,1.63-.371l1.229-1.755a2.813,2.813,0,0,1,2.456-1.183l2.14.132a1.238,1.238,0,0,0,1.306-1.042l.345-2.115a2.8,2.8,0,0,1,1.7-2.134l1.984-.805a1.241,1.241,0,0,0,.726-1.506l-.606-2.055a2.805,2.805,0,0,1,.606-2.658l1.439-1.592h0a1.242,1.242,0,0,0,0-1.67l-1.439-1.592a2.8,2.8,0,0,1-.605-2.658l.606-2.054a1.241,1.241,0,0,0-.727-1.507l-1.983-.8a2.8,2.8,0,0,1-1.7-2.134l-.346-2.116a1.251,1.251,0,0,0-1.305-1.042l-2.142.132a2.792,2.792,0,0,1-2.455-1.183l-1.23-1.757a1.243,1.243,0,0,0-1.63-.371L69.4,55.2a2.805,2.805,0,0,1-2.731,0L64.8,54.152a1.241,1.241,0,0,0-1.63.371l-1.229,1.754a2.787,2.787,0,0,1-2.455,1.184l-2.142-.133a1.252,1.252,0,0,0-1.305,1.042l-.346,2.116a2.8,2.8,0,0,1-1.7,2.133L52,63.426a1.242,1.242,0,0,0-.726,1.507l.606,2.054a2.807,2.807,0,0,1-.605,2.658l-1.44,1.593a1.242,1.242,0,0,0,0,1.669L51.278,74.5a2.805,2.805,0,0,1,.606,2.658l-.606,2.055A1.241,1.241,0,0,0,52,80.719l1.983.8a2.808,2.808,0,0,1,1.7,2.135l.345,2.115a1.247,1.247,0,0,0,1.305,1.042l2.142-.132a2.779,2.779,0,0,1,2.455,1.183l1.229,1.757a1.24,1.24,0,0,0,1.63.371l1.868-1.049a2.79,2.79,0,0,1,1.366-.355Z" stroke="#faf7f2" stroke-width="0.8"/></g></svg>