<svg clip-rule="evenodd" fill-rule="evenodd" height="512" stroke-linejoin="round" stroke-miterlimit="2" viewBox="0 0 64 64" width="512" xmlns="http://www.w3.org/2000/svg"><g id="ICON"><path d="m36.969 7.812c-1.771 0-3.209 1.438-3.209 3.209s1.438 3.208 3.209 3.208c1.77 0 3.208-1.437 3.208-3.208s-1.438-3.209-3.208-3.209zm0 2c.667 0 1.208.542 1.208 1.209s-.541 1.208-1.208 1.208-1.209-.541-1.209-1.208.542-1.209 1.209-1.209z"></path><circle cx="29.948" cy="58.5" r="1"></circle><path d="m20.906 41.272c-1.533-.885-3.497-.359-4.382 1.174-.886 1.534-.36 3.498 1.174 4.383 1.533.885 3.497.359 4.383-1.174.885-1.534.359-3.498-1.175-4.383zm-1 1.732c.578.333.776 1.073.443 1.651-.334.577-1.074.775-1.651.442-.578-.334-.776-1.073-.442-1.651.333-.577 1.073-.775 1.65-.442z"></path><path d="m28.24 21.763c-4.885 2.118-8.853 5.961-11.134 10.759-.849-.592-1.782-1.143-2.631-1.595-.305-.163-.672-.156-.971.016-.298.173-.487.487-.499.832-.016.459-.039.886-.064 1.258-.334-.165-.716-.358-1.121-.574-.305-.162-.671-.156-.97.017s-.488.487-.5.832c-.067 1.969.046 4.447.642 5.945-1.595.232-3.797 1.373-5.469 2.416-.293.183-.471.504-.471.849s.178.666.471.848c.389.243.748.477 1.057.685-.31.207-.668.441-1.057.684-.293.182-.471.503-.471.848s.178.666.471.849c1.672 1.043 3.874 2.183 5.469 2.416-.596 1.498-.709 3.976-.642 5.945.012.345.201.659.5.832s.665.179.97.017c.405-.216.787-.41 1.121-.574.025.372.048.799.064 1.258.012.345.201.659.499.832.299.172.666.179.971.016 1.466-.781 3.181-1.854 4.282-2.929 1.14 1.685 2.508 3.205 4.058 4.514.003.002.006.005.009.007.575.475 1.298.734 2.043.734h2.081c.552 0 1-.448 1-1s-.448-1-1-1h-2.082c-.279 0-.55-.097-.766-.274-.072-.06-.143-.121-.214-.183.082.045.163.088.244.131.304.163.671.156.97-.016.299-.173.487-.487.499-.832.016-.459.039-.886.064-1.258.335.164.716.358 1.121.574.305.162.672.156.97-.017.212-.122.369-.316.446-.542 4.974 0 15.949-.001 19.141-.011.851 0 1.67-.342 2.27-.949.004-.003.007-.007.01-.01 3.04-3.157 4.91-7.45 4.91-12.176 0-5.046-2.133-9.599-5.546-12.803-.402-.378-1.036-.358-1.414.044-.377.402-.357 1.036.045 1.414 2.136 2.005 3.706 4.606 4.445 7.537-4.95.155-8.895-.391-12.436-1.118v-10.41c2.1.362 4.057 1.145 5.78 2.26.463.3 1.083.167 1.383-.297.299-.463.166-1.083-.297-1.382-2.453-1.588-5.327-2.58-8.416-2.773l-1.106-.034-.941.025c-5.518.291-10.364 3.135-13.378 7.371-1.323.81-2.623 1.766-3.348 2.684-.168-.213-.366-.427-.589-.641 3.115-6.983 10.121-11.856 18.256-11.856 11.027 0 19.979 8.953 19.979 19.979 0 6.129-2.766 11.617-7.115 15.282-.215.177-.484.273-.762.273-.001 0-.002 0-.002 0-3.078.007-16.121.007-16.121.007-.552 0-1 .448-1 1s.448 1 1 1c0 0 13.047 0 16.125-.007.742 0 1.462-.259 2.036-.732.002-.002.005-.004.007-.007 4.788-4.032 7.832-10.071 7.832-16.816 0-9.03-5.457-16.795-13.25-20.174v-4.221c0-1.105-.896-2-2-2h-11.25v-8.042c0-.265.105-.52.293-.707.187-.188.442-.293.707-.293h7.042c.265 0 .519.105.707.293.187.187.293.442.293.707v6.097c0 .552.448 1 1 1 .551 0 1-.448 1-1v-6.097c0-.796-.316-1.559-.879-2.121-.563-.563-1.326-.879-2.121-.879h-7.042c-.796 0-1.559.316-2.121.879-.563.562-.879 1.325-.879 2.121v8.042h-.208c-1.105 0-2 .895-2 2zm-9.924 15.568c.082.481.498.832.986.832s.904-.351.986-.832c.095-.562.225-1.062.434-1.423.486-.842 1.711-1.706 2.967-2.446.054.73.108 1.197.108 1.197.036.315.219.593.493.751.274.159.607.178.898.052 0 0 .432-.187 1.091-.505-.014 1.458-.149 2.951-.635 3.793-.209.361-.577.723-1.016 1.087-.375.311-.471.848-.228 1.27.244.422.757.607 1.214.438.534-.199 1.032-.336 1.45-.336.972 0 2.332.629 3.602 1.346-.606.412-.983.693-.983.693-.254.188-.404.486-.404.802 0 .317.15.615.404.803 0 0 .377.281.982.693-1.269.717-2.629 1.346-3.601 1.346-.418 0-.916-.137-1.45-.336-.457-.169-.97.016-1.214.438-.243.422-.147.959.228 1.27.439.363.807.726 1.016 1.087.486.842.621 2.335.635 3.793-.659-.318-1.091-.505-1.091-.505-.291-.126-.624-.107-.898.052-.274.158-.457.436-.493.751 0 0-.054.467-.108 1.197-1.256-.74-2.481-1.604-2.967-2.446-.209-.361-.339-.862-.434-1.423-.082-.481-.498-.832-.986-.832s-.904.351-.986.832c-.095.561-.225 1.062-.434 1.423-.486.842-1.711 1.706-2.967 2.446-.054-.73-.108-1.197-.108-1.197-.036-.315-.219-.593-.493-.751-.274-.159-.607-.178-.898-.052 0 0-.431.187-1.09.504.013-1.457.148-2.95.634-3.792.209-.361.577-.724 1.016-1.087.375-.311.472-.848.228-1.27s-.757-.607-1.214-.438c-.534.199-1.032.336-1.45.336-.972 0-2.332-.629-3.602-1.346.606-.412.984-.693.984-.693.254-.188.403-.486.403-.803 0-.316-.149-.614-.403-.802 0 0-.378-.281-.983-.693 1.269-.717 2.629-1.346 3.601-1.346.418 0 .916.137 1.45.336.457.169.97-.016 1.214-.438s.147-.959-.228-1.27c-.439-.364-.807-.726-1.016-1.087-.486-.842-.621-2.335-.635-3.793.66.318 1.091.505 1.091.505.291.126.624.107.898-.052.274-.158.457-.436.493-.751 0 0 .054-.467.109-1.197 1.255.74 2.48 1.604 2.966 2.446.209.361.339.861.434 1.423zm15.996.494c-2.039-.476-4.041-.921-6.145-1.214-.097.996-.271 1.929-.555 2.642 1.595.232 3.797 1.373 5.469 2.416.293.183.471.504.471.849s-.178.666-.471.848c-.389.243-.747.477-1.057.684.31.208.668.442 1.057.685.293.182.471.503.471.848s-.178.666-.471.849c-1.672 1.043-3.874 2.183-5.469 2.416.432 1.086.61 2.687.65 4.235 5.001 0 15.895-.001 19.073-.011h.003c.318 0 .623-.126.847-.351 2.691-2.798 4.346-6.599 4.346-10.784 0-.615-.036-1.223-.105-1.82-5.109.187-9.167-.358-12.801-1.092v.704c0 1.466-1.19 2.656-2.656 2.656s-2.657-1.19-2.657-2.656zm2.001.47-.001 1.434c0 .362.295.656.657.656s.656-.294.656-.656v-1.133c-.442-.099-.879-.2-1.312-.301zm.582-11.92-.582.014v9.882c.433.103.87.205 1.312.305v-10.187zm-2.583.226c-3.454.595-6.521 2.332-8.797 4.805.05.115.08.24.084.369.016.459.039.886.064 1.258.334-.164.716-.358 1.121-.574.305-.162.672-.156.97.017.299.173.488.487.5.832.014.415.02.853.016 1.299 2.071.283 4.04.72 6.042 1.191zm-4.072-5.592c2.121-.682 4.382-1.051 6.729-1.051s4.609.369 6.729 1.051v-3.467h-13.458z"></path></g></svg>