<svg fill="none" viewBox="0 0 64 64" xmlns="http://www.w3.org/2000/svg">
    <path
        d="M32 8L24 16L8 16L16 24L8 32L16 40L8 48L24 48L32 56L40 48L56 48L48 40L56 32L48 24L56 16L40 16L32 8Z"
        stroke="currentColor"
        strokeLinecap="round"
        strokeLinejoin="round"
        strokeWidth="2"
    />
    <path
        d="M32 20L28 24L20 24L24 28L20 32L24 36L20 40L28 40L32 44L36 40L44 40L40 36L44 32L40 28L44 24L36 24L32 20Z"
        stroke="currentColor"
        strokeLinecap="round"
        strokeLinejoin="round"
        strokeWidth="2"
    />
</svg>
